<svg width="12" height="12" viewBox="0 0 12 12" fill="none" xmlns="http://www.w3.org/2000/svg">
<path d="M0 5.60156C0.588542 5.3776 1.10417 5.16667 1.54688 4.96875C1.98958 4.76562 2.3776 4.55729 2.71094 4.34375C3.04427 4.125 3.33854 3.88802 3.59375 3.63281C3.84896 3.3776 4.08333 3.08073 4.29688 2.74219C4.51042 2.40365 4.71615 2.01302 4.91406 1.57031C5.11719 1.1224 5.33073 0.598958 5.55469 0C5.77865 0.598958 5.98958 1.1224 6.1875 1.57031C6.39062 2.01302 6.59896 2.40365 6.8125 2.74219C7.02604 3.08073 7.25781 3.3776 7.50781 3.63281C7.76302 3.88802 8.05729 4.125 8.39062 4.34375C8.72917 4.55729 9.11719 4.76562 9.55469 4.96875C9.9974 5.16667 10.513 5.3776 11.1016 5.60156C10.513 5.83073 9.9974 6.04427 9.55469 6.24219C9.11719 6.4401 8.72917 6.64844 8.39062 6.86719C8.05729 7.08073 7.76302 7.3151 7.50781 7.57031C7.25781 7.82552 7.02604 8.1224 6.8125 8.46094C6.59896 8.79948 6.39062 9.19271 6.1875 9.64062C5.98958 10.0833 5.77865 10.6042 5.55469 11.2031C5.32552 10.6042 5.11198 10.0833 4.91406 9.64062C4.71615 9.19271 4.51042 8.79948 4.29688 8.46094C4.08333 8.1224 3.84896 7.82552 3.59375 7.57031C3.33854 7.3151 3.04427 7.08073 2.71094 6.86719C2.3776 6.64844 1.98958 6.4401 1.54688 6.24219C1.10417 6.03906 0.588542 5.82552 0 5.60156Z" fill="#D4CAB8"/>
</svg>
