<svg width="18" height="18" viewBox="0 0 18 18" fill="none" xmlns="http://www.w3.org/2000/svg">
<path d="M10.4051 5.47681C10.5523 5.47681 10.6793 5.53013 10.7859 5.63677C10.8977 5.74341 10.9535 5.87036 10.9535 6.01763C10.9535 6.12427 10.9256 6.22075 10.8697 6.30708L9.71953 8.22661C9.76016 8.31294 9.79316 8.40181 9.81856 8.49321C9.84395 8.57954 9.85664 8.66841 9.85664 8.75981C9.85664 8.91216 9.82617 9.05435 9.76523 9.18638C9.70938 9.31841 9.63066 9.4352 9.5291 9.53677C9.43262 9.63325 9.31836 9.71196 9.18633 9.7729C9.0543 9.82876 8.91211 9.85669 8.75977 9.85669C8.60742 9.85669 8.46523 9.82876 8.3332 9.7729C8.20117 9.71196 8.08438 9.63325 7.98281 9.53677C7.88633 9.4352 7.80762 9.31841 7.74668 9.18638C7.69082 9.05435 7.66289 8.91216 7.66289 8.75981C7.66289 8.56685 7.71113 8.38657 7.80762 8.21899C7.90918 8.04634 8.04375 7.91177 8.21133 7.81528V4.92837C8.21133 4.77603 8.26465 4.64653 8.37129 4.53989C8.47793 4.43325 8.60742 4.37993 8.75977 4.37993C8.91211 4.37993 9.0416 4.43325 9.14824 4.53989C9.25488 4.64653 9.3082 4.77603 9.3082 4.92837V6.78696L9.93281 5.74341C10.0395 5.56567 10.1969 5.47681 10.4051 5.47681ZM8.75977 4.848e-05C9.56211 4.848e-05 10.3365 0.10415 11.083 0.312353C11.8295 0.520556 12.5277 0.815088 13.1777 1.19595C13.8277 1.57681 14.4193 2.03384 14.9525 2.56704C15.4857 3.10024 15.9428 3.69185 16.3236 4.34185C16.7045 4.99185 16.999 5.69009 17.2072 6.43657C17.4154 7.18306 17.5195 7.95747 17.5195 8.75981C17.5195 9.56724 17.4154 10.3442 17.2072 11.0907C16.999 11.8321 16.7045 12.5278 16.3236 13.1778C15.9428 13.8278 15.4857 14.4194 14.9525 14.9526C14.4193 15.4858 13.8277 15.9428 13.1777 16.3237C12.5277 16.7045 11.8295 16.9991 11.083 17.2073C10.3365 17.4155 9.56211 17.5196 8.75977 17.5196C7.95234 17.5196 7.17539 17.4155 6.42891 17.2073C5.6875 16.9991 4.9918 16.7045 4.3418 16.3237C3.6918 15.9428 3.1002 15.4858 2.56699 14.9526C2.03379 14.4194 1.57676 13.8278 1.1959 13.1778C0.815039 12.5278 0.520508 11.8295 0.312305 11.0831C0.104102 10.3366 2.38419e-07 9.56216 2.38419e-07 8.75981C2.38419e-07 7.95747 0.104102 7.18306 0.312305 6.43657C0.520508 5.69009 0.815039 4.99185 1.1959 4.34185C1.57676 3.69185 2.03379 3.10024 2.56699 2.56704C3.1002 2.03384 3.6918 1.57681 4.3418 1.19595C4.9918 0.815088 5.6875 0.520556 6.42891 0.312353C7.17539 0.10415 7.95234 4.848e-05 8.75977 4.848e-05ZM8.75977 16.4227C9.46563 16.4227 10.1436 16.3313 10.7936 16.1485C11.4486 15.9657 12.0605 15.7067 12.6293 15.3715C13.198 15.0415 13.7135 14.6454 14.1756 14.1833C14.6428 13.7161 15.0414 13.1981 15.3715 12.6293C15.7066 12.0606 15.9656 11.4512 16.1484 10.8012C16.3313 10.1461 16.4227 9.46567 16.4227 8.75981C16.4227 8.05395 16.3313 7.37603 16.1484 6.72603C15.9656 6.07095 15.7066 5.45903 15.3715 4.89028C15.0414 4.32153 14.6428 3.8061 14.1756 3.34399C13.7135 2.87681 13.198 2.47817 12.6293 2.1481C12.0605 1.81294 11.4486 1.55395 10.7936 1.37114C10.1436 1.18833 9.46563 1.09692 8.75977 1.09692C8.05391 1.09692 7.37344 1.18833 6.71836 1.37114C6.06836 1.55395 5.45898 1.81294 4.89023 2.1481C4.32148 2.47817 3.80352 2.87681 3.33633 3.34399C2.87422 3.8061 2.47559 4.32153 2.14043 4.89028C1.81035 5.45903 1.55391 6.07095 1.37109 6.72603C1.18828 7.37603 1.09688 8.05395 1.09688 8.75981C1.09688 9.46567 1.18828 10.1461 1.37109 10.8012C1.55391 11.4512 1.81035 12.0606 2.14043 12.6293C2.47559 13.1981 2.87422 13.7161 3.33633 14.1833C3.80352 14.6454 4.32148 15.0415 4.89023 15.3715C5.45898 15.7067 6.06836 15.9657 6.71836 16.1485C7.37344 16.3313 8.05391 16.4227 8.75977 16.4227ZM8.75977 1.64536C9.41484 1.64536 10.0445 1.73169 10.6488 1.90435C11.2582 2.07192 11.8244 2.3106 12.3475 2.62036C12.8756 2.92505 13.3555 3.29575 13.7871 3.73247C14.2238 4.16411 14.5945 4.64399 14.8992 5.17212C15.209 5.69517 15.4477 6.26138 15.6152 6.87075C15.7879 7.47505 15.8742 8.10474 15.8742 8.75981C15.8742 9.41489 15.7879 10.0471 15.6152 10.6565C15.4477 11.2608 15.209 11.827 14.8992 12.3551C14.5945 12.8833 14.2264 13.3631 13.7947 13.7948C13.3631 14.2264 12.8832 14.5946 12.3551 14.8993C11.827 15.209 11.2582 15.4477 10.6488 15.6153C10.0445 15.7879 9.41484 15.8743 8.75977 15.8743C8.10469 15.8743 7.47246 15.7879 6.86309 15.6153C6.25879 15.4477 5.69258 15.209 5.16445 14.8993C4.63633 14.5946 4.15645 14.2264 3.72481 13.7948C3.29316 13.3631 2.92246 12.8833 2.6127 12.3551C2.30801 11.827 2.06934 11.2608 1.89668 10.6565C1.7291 10.0471 1.64531 9.41489 1.64531 8.75981C1.64531 8.10474 1.7291 7.47505 1.89668 6.87075C2.06934 6.26138 2.30801 5.69263 2.6127 5.1645C2.92246 4.63638 3.29316 4.15649 3.72481 3.72485C4.15645 3.29321 4.63633 2.92505 5.16445 2.62036C5.69258 2.3106 6.25879 2.07192 6.86309 1.90435C7.47246 1.73169 8.10469 1.64536 8.75977 1.64536ZM8.75977 15.3334C9.36406 15.3334 9.94551 15.2547 10.5041 15.0973C11.0627 14.9399 11.5857 14.719 12.0732 14.4346C12.5607 14.1502 13.0025 13.8075 13.3986 13.4063C13.7998 13.0051 14.1426 12.5608 14.427 12.0733C14.7113 11.5858 14.9322 11.0627 15.0896 10.5042C15.2471 9.94556 15.3258 9.36411 15.3258 8.75981C15.3258 8.15552 15.2471 7.57407 15.0896 7.01548C14.9373 6.45181 14.7164 5.92876 14.427 5.44634C14.1426 4.95884 13.7998 4.51704 13.3986 4.12095C13.0025 3.71978 12.5607 3.377 12.0732 3.09263C11.5908 2.80317 11.0678 2.58228 10.5041 2.42993C9.94551 2.27251 9.36406 2.1938 8.75977 2.1938C8.15547 2.1938 7.57402 2.27251 7.01543 2.42993C6.45684 2.58735 5.93379 2.80825 5.44629 3.09263C4.95879 3.377 4.51445 3.71978 4.11328 4.12095C3.71211 4.51704 3.36934 4.95884 3.08496 5.44634C2.80059 5.93384 2.57969 6.45688 2.42227 7.01548C2.26484 7.57407 2.18613 8.15552 2.18613 8.75981C2.18613 9.36411 2.26484 9.94556 2.42227 10.5042C2.57969 11.0627 2.80059 11.5858 3.08496 12.0733C3.36934 12.5608 3.71211 13.0051 4.11328 13.4063C4.51445 13.8075 4.95879 14.1502 5.44629 14.4346C5.93379 14.719 6.45684 14.9399 7.01543 15.0973C7.57402 15.2547 8.15547 15.3334 8.75977 15.3334Z" fill="#F8D49E"/>
</svg>
