<svg width="18" height="13" viewBox="0 0 18 13" fill="none" xmlns="http://www.w3.org/2000/svg">
<path d="M0 0H17.9688V12.3594H0V0ZM1.125 11.2344H16.8438L10.8984 5.28906C10.5755 5.44531 10.2526 5.60156 9.92969 5.75781C9.61198 5.90885 9.29688 6.07292 8.98438 6.25C8.67188 6.07292 8.35417 5.90885 8.03125 5.75781C7.71354 5.60156 7.39323 5.44531 7.07031 5.28906L1.125 11.2344ZM16.8438 1.6875V1.125H1.125V1.6875L8.98438 5.61719L16.8438 1.6875ZM1.125 2.3125V10.4375L6.53906 5.02344L1.125 2.3125ZM11.4297 5.02344L16.8438 10.4375V2.3125L11.4297 5.02344Z" fill="#F8D49E"/>
</svg>
