<svg width="5" height="13" viewBox="0 0 5 13" fill="none" xmlns="http://www.w3.org/2000/svg">
<path d="M1.088 12.2241V6.67212H1.13249e-06V5.98412H1.088V2.83212C1.088 1.82945 1.25867 1.10945 1.6 0.67212C1.952 0.22412 2.46933 0.000120163 3.152 0.000120163C3.30133 0.000120163 3.46133 0.0214535 3.632 0.0641203C3.80267 0.0961205 3.95733 0.154787 4.096 0.240121L3.776 0.784121C3.70133 0.730787 3.616 0.693454 3.52 0.67212C3.43467 0.640121 3.33333 0.624121 3.216 0.624121C2.75733 0.624121 2.41067 0.784121 2.176 1.10412C1.952 1.42412 1.84 1.99479 1.84 2.81612V5.98412H3.936V6.67212H1.84V12.2241H1.088Z" fill="#D4CAB8"/>
</svg>
