<svg width="68" height="83" viewBox="0 0 68 83" fill="none" xmlns="http://www.w3.org/2000/svg">
<rect x="33.5" width="1" height="60" fill="url(#paint0_linear_11_222)"/>
<path d="M6.214 72.278C5.89333 72.1133 5.54233 71.9703 5.161 71.849C4.77967 71.7277 4.407 71.667 4.043 71.667C3.54033 71.667 3.13733 71.784 2.834 72.018C2.53933 72.252 2.392 72.564 2.392 72.954C2.392 73.2487 2.48733 73.5 2.678 73.708C2.86867 73.9073 3.12 74.0807 3.432 74.228C3.744 74.3753 4.069 74.514 4.407 74.644C4.70167 74.7567 4.992 74.8823 5.278 75.021C5.564 75.1597 5.81967 75.333 6.045 75.541C6.279 75.749 6.461 76.0047 6.591 76.308C6.72967 76.6113 6.799 76.9883 6.799 77.439C6.799 77.933 6.67333 78.3837 6.422 78.791C6.17933 79.1983 5.82833 79.519 5.369 79.753C4.90967 79.987 4.36367 80.104 3.731 80.104C3.315 80.104 2.91633 80.0563 2.535 79.961C2.16233 79.8657 1.81567 79.7443 1.495 79.597C1.17433 79.441 0.888333 79.2807 0.637 79.116L1.196 78.128C1.404 78.2753 1.64233 78.4183 1.911 78.557C2.17967 78.687 2.46133 78.7953 2.756 78.882C3.05067 78.96 3.33667 78.999 3.614 78.999C3.90867 78.999 4.199 78.947 4.485 78.843C4.77967 78.7303 5.02233 78.5613 5.213 78.336C5.40367 78.1107 5.499 77.8117 5.499 77.439C5.499 77.1183 5.41233 76.854 5.239 76.646C5.07433 76.4293 4.85333 76.2473 4.576 76.1C4.29867 75.944 4.004 75.8053 3.692 75.684C3.39733 75.5713 3.09833 75.45 2.795 75.32C2.49167 75.1813 2.21 75.0167 1.95 74.826C1.69 74.6267 1.482 74.384 1.326 74.098C1.17 73.812 1.092 73.4653 1.092 73.058C1.092 72.564 1.209 72.135 1.443 71.771C1.68567 71.3983 2.015 71.108 2.431 70.9C2.847 70.6833 3.32367 70.5663 3.861 70.549C4.46767 70.549 5.00067 70.6227 5.46 70.77C5.928 70.9173 6.33967 71.0993 6.695 71.316L6.214 72.278ZM18.8214 79.298C18.6654 79.402 18.4531 79.519 18.1844 79.649C17.9157 79.779 17.5994 79.8873 17.2354 79.974C16.8801 80.0607 16.4901 80.104 16.0654 80.104C15.3374 80.0953 14.6787 79.9653 14.0894 79.714C13.5087 79.4627 13.0147 79.1203 12.6074 78.687C12.2001 78.2537 11.8837 77.7553 11.6584 77.192C11.4417 76.62 11.3334 76.0133 11.3334 75.372C11.3334 74.67 11.4461 74.0243 11.6714 73.435C11.9054 72.837 12.2304 72.3213 12.6464 71.888C13.0624 71.446 13.5521 71.1037 14.1154 70.861C14.6874 70.6183 15.3114 70.497 15.9874 70.497C16.5507 70.497 17.0621 70.575 17.5214 70.731C17.9807 70.8783 18.3751 71.056 18.7044 71.264L18.1974 72.434C17.9374 72.2607 17.6211 72.096 17.2484 71.94C16.8844 71.784 16.4771 71.706 16.0264 71.706C15.5671 71.706 15.1337 71.797 14.7264 71.979C14.3191 72.161 13.9594 72.4167 13.6474 72.746C13.3354 73.0753 13.0884 73.461 12.9064 73.903C12.7331 74.3363 12.6464 74.8043 12.6464 75.307C12.6464 75.8183 12.7244 76.295 12.8804 76.737C13.0451 77.1703 13.2747 77.5473 13.5694 77.868C13.8727 78.1887 14.2367 78.44 14.6614 78.622C15.0861 78.804 15.5627 78.895 16.0914 78.895C16.5681 78.895 16.9927 78.8213 17.3654 78.674C17.7381 78.5267 18.0457 78.362 18.2884 78.18L18.8214 79.298ZM26.4408 70.601C26.9174 70.601 27.3551 70.666 27.7538 70.796C28.1611 70.9173 28.5121 71.1037 28.8068 71.355C29.1101 71.5977 29.3441 71.901 29.5088 72.265C29.6821 72.6203 29.7688 73.0363 29.7688 73.513C29.7688 73.8857 29.7124 74.2497 29.5998 74.605C29.4958 74.9603 29.3181 75.2853 29.0668 75.58C28.8154 75.866 28.4861 76.1 28.0788 76.282C27.6801 76.4553 27.1861 76.542 26.5968 76.542H25.2058V80H23.9448V70.601H26.4408ZM26.5708 75.333C26.9434 75.333 27.2511 75.2767 27.4938 75.164C27.7451 75.0513 27.9401 74.9083 28.0788 74.735C28.2174 74.553 28.3171 74.358 28.3778 74.15C28.4384 73.942 28.4688 73.747 28.4688 73.565C28.4688 73.3743 28.4341 73.1793 28.3648 72.98C28.3041 72.772 28.2001 72.5813 28.0528 72.408C27.9141 72.2347 27.7278 72.0917 27.4938 71.979C27.2684 71.8663 26.9911 71.81 26.6618 71.81H25.2058V75.333H26.5708ZM28.1178 76.048L30.5748 80H29.1188L26.6228 76.087L28.1178 76.048ZM34.726 75.307C34.726 74.657 34.8473 74.046 35.09 73.474C35.3413 72.8933 35.688 72.382 36.13 71.94C36.572 71.4893 37.079 71.1383 37.651 70.887C38.2317 70.627 38.8557 70.497 39.523 70.497C40.1817 70.497 40.797 70.627 41.369 70.887C41.9497 71.1383 42.461 71.4893 42.903 71.94C43.3537 72.382 43.7047 72.8933 43.956 73.474C44.2073 74.046 44.333 74.657 44.333 75.307C44.333 75.9743 44.2073 76.5983 43.956 77.179C43.7047 77.7597 43.3537 78.271 42.903 78.713C42.461 79.1463 41.9497 79.4887 41.369 79.74C40.797 79.9827 40.1817 80.104 39.523 80.104C38.8557 80.104 38.2317 79.9827 37.651 79.74C37.079 79.4973 36.572 79.1593 36.13 78.726C35.688 78.2927 35.3413 77.7857 35.09 77.205C34.8473 76.6243 34.726 75.9917 34.726 75.307ZM36.026 75.32C36.026 75.814 36.117 76.2777 36.299 76.711C36.481 77.1357 36.7323 77.5127 37.053 77.842C37.3737 78.1713 37.7463 78.4313 38.171 78.622C38.5957 78.804 39.055 78.895 39.549 78.895C40.0343 78.895 40.4893 78.804 40.914 78.622C41.3387 78.4313 41.707 78.1713 42.019 77.842C42.331 77.5127 42.578 77.1357 42.76 76.711C42.942 76.2777 43.033 75.8097 43.033 75.307C43.033 74.813 42.942 74.3493 42.76 73.916C42.578 73.474 42.3267 73.0883 42.006 72.759C41.6853 72.4297 41.3127 72.174 40.888 71.992C40.4633 71.8013 40.0083 71.706 39.523 71.706C39.029 71.706 38.5697 71.8013 38.145 71.992C37.7203 72.1827 37.3477 72.4427 37.027 72.772C36.7063 73.1013 36.4593 73.487 36.286 73.929C36.1127 74.3623 36.026 74.826 36.026 75.32ZM49.4575 70.601H50.7185V78.791H55.4895V80H49.4575V70.601ZM60.5444 70.601H61.8054V78.791H66.5764V80H60.5444V70.601Z" fill="white" fill-opacity="0.4"/>
<defs>
<linearGradient id="paint0_linear_11_222" x1="34" y1="0" x2="34" y2="60" gradientUnits="userSpaceOnUse">
<stop stop-color="#F8D49E"/>
<stop offset="1" stop-color="#F8D49E" stop-opacity="0"/>
</linearGradient>
</defs>
</svg>
