<svg width="10" height="10" viewBox="0 0 10 10" fill="none" xmlns="http://www.w3.org/2000/svg">
<path d="M0.159992 2.83189H0.911993V9.08789H0.159992V2.83189ZM-7.51019e-06 0.52789C-7.51019e-06 0.378557 0.0586592 0.25589 0.175992 0.15989C0.293326 0.0532236 0.421326 -0.000109673 0.559993 -0.000109673C0.709326 -0.000109673 0.837326 0.0532236 0.943993 0.15989C1.05066 0.25589 1.10399 0.378557 1.10399 0.52789C1.10399 0.68789 1.05066 0.821223 0.943993 0.92789C0.837326 1.02389 0.709326 1.07189 0.559993 1.07189C0.421326 1.07189 0.293326 1.01856 0.175992 0.91189C0.0586592 0.805223 -7.51019e-06 0.677224 -7.51019e-06 0.52789ZM4.40974 2.83189L4.48974 4.79989L4.39374 4.41589C4.57508 3.87189 4.91641 3.44522 5.41774 3.13589C5.92974 2.81589 6.49508 2.65589 7.11374 2.65589C7.70041 2.65589 8.17508 2.83189 8.53774 3.18389C8.90041 3.52522 9.08708 3.97322 9.09774 4.52789V9.08789H8.32974V4.73589C8.31908 4.33056 8.19108 3.99456 7.94574 3.72789C7.70041 3.46122 7.34308 3.32256 6.87374 3.31189C6.45774 3.31189 6.06841 3.41322 5.70574 3.61589C5.34308 3.81856 5.04974 4.10122 4.82574 4.46389C4.61241 4.82656 4.50574 5.24789 4.50574 5.72789V9.08789H3.75374V2.83189H4.40974Z" fill="#D4CAB8"/>
</svg>
