<svg width="9" height="18" viewBox="0 0 9 18" fill="none" xmlns="http://www.w3.org/2000/svg">
<path d="M8.75977 4.37987C8.75977 4.82167 8.69375 5.25077 8.56172 5.66718C8.42969 6.08358 8.24434 6.46952 8.00566 6.82499C7.76699 7.18046 7.48008 7.49784 7.14492 7.77714C6.80977 8.05135 6.43652 8.27225 6.0252 8.43983V14.7621C6.1877 14.8992 6.31719 15.0642 6.41367 15.2572C6.51523 15.4553 6.56602 15.6609 6.56602 15.8742C6.56602 16.1637 6.49746 16.4099 6.36035 16.6131C6.22832 16.8213 6.05566 16.9914 5.84238 17.1234C5.6291 17.2605 5.39297 17.3596 5.13398 17.4205C4.875 17.4865 4.62363 17.5195 4.37988 17.5195C4.13613 17.5195 3.88477 17.4865 3.62578 17.4205C3.3668 17.3596 3.13066 17.2605 2.91738 17.1234C2.7041 16.9914 2.52891 16.8213 2.3918 16.6131C2.25469 16.4049 2.18613 16.1586 2.18613 15.8742C2.18613 15.6558 2.23691 15.4502 2.33848 15.2572C2.44004 15.0642 2.57207 14.8992 2.73457 14.7621V8.43983C2.32324 8.27225 1.95 8.05135 1.61484 7.77714C1.27969 7.49784 0.992773 7.18046 0.754101 6.82499C0.515429 6.46952 0.330078 6.08358 0.198047 5.66718C0.0660154 5.25077 -2.38419e-07 4.82167 -2.38419e-07 4.37987C-2.38419e-07 3.78065 0.114258 3.21444 0.342773 2.68124C0.576367 2.14803 0.891211 1.68339 1.2873 1.28729C1.6834 0.891198 2.14551 0.578894 2.67363 0.350378C3.20684 0.116784 3.77559 -1.25552e-05 4.37988 -1.25552e-05C4.9791 -1.25552e-05 5.54531 0.116784 6.07852 0.350378C6.61172 0.578894 7.07637 0.891198 7.47246 1.28729C7.86855 1.68339 8.18086 2.14803 8.40937 2.68124C8.64297 3.21444 8.75977 3.78065 8.75977 4.37987ZM4.92832 7.61718C5.32441 7.55116 5.6875 7.42167 6.01758 7.2287C6.35273 7.03065 6.64219 6.7869 6.88594 6.49745C7.12969 6.208 7.32012 5.883 7.45723 5.52245C7.59434 5.15682 7.66289 4.77596 7.66289 4.37987C7.66289 3.92792 7.57656 3.50389 7.40391 3.1078C7.23125 2.70663 6.99512 2.35878 6.69551 2.06425C6.40098 1.76464 6.05312 1.5285 5.65195 1.35585C5.25586 1.18319 4.83184 1.09686 4.37988 1.09686C3.92793 1.09686 3.50137 1.18319 3.1002 1.35585C2.7041 1.5285 2.35625 1.76464 2.05664 2.06425C1.76211 2.35878 1.52852 2.70663 1.35586 3.1078C1.1832 3.50389 1.09687 3.92792 1.09687 4.37987C1.09687 4.77596 1.16543 5.15682 1.30254 5.52245C1.43965 5.883 1.63008 6.208 1.87383 6.49745C2.11758 6.7869 2.40449 7.03065 2.73457 7.2287C3.06973 7.42167 3.43535 7.55116 3.83145 7.61718V15.3334C3.83145 15.4502 3.83906 15.5416 3.8543 15.6076C3.86953 15.6787 3.89492 15.7346 3.93047 15.7752C3.97109 15.8158 4.02695 15.8412 4.09805 15.8514C4.16914 15.8666 4.26309 15.8742 4.37988 15.8742C4.4916 15.8742 4.58301 15.8666 4.6541 15.8514C4.73027 15.8412 4.78613 15.8158 4.82168 15.7752C4.8623 15.7346 4.89023 15.6787 4.90547 15.6076C4.9207 15.5416 4.92832 15.4502 4.92832 15.3334V7.61718Z" fill="#F8D49E"/>
</svg>
