<svg width="17" height="17" viewBox="0 0 17 17" fill="none" xmlns="http://www.w3.org/2000/svg">
<path d="M11.1719 9.54688C11.3438 9.54688 11.5208 9.57552 11.7031 9.63281L15.6875 10.9609C15.8542 11.0182 16.0078 11.1016 16.1484 11.2109C16.2943 11.3151 16.4167 11.4375 16.5156 11.5781C16.6198 11.7188 16.7005 11.875 16.7578 12.0469C16.8151 12.2135 16.8438 12.3854 16.8438 12.5625C16.8438 12.6823 16.8255 12.8151 16.7891 12.9609C16.7578 13.1068 16.7188 13.2552 16.6719 13.4062C16.625 13.5573 16.5729 13.7083 16.5156 13.8594C16.4635 14.0052 16.4141 14.1406 16.3672 14.2656C16.1953 14.7292 15.9792 15.1224 15.7188 15.4453C15.4583 15.7734 15.1589 16.0417 14.8203 16.25C14.4818 16.4583 14.1042 16.6094 13.6875 16.7031C13.276 16.7969 12.8307 16.8438 12.3516 16.8438C11.2161 16.8438 10.1224 16.6953 9.07031 16.3984C8.01823 16.1068 7.03385 15.6927 6.11719 15.1562C5.20052 14.6198 4.36719 13.9766 3.61719 13.2266C2.86719 12.4766 2.22396 11.6432 1.6875 10.7266C1.15104 9.8099 0.734375 8.82552 0.4375 7.77344C0.145833 6.72135 0 5.6276 0 4.49219V4.07031C0 3.64844 0.0625 3.2526 0.1875 2.88281C0.3125 2.51302 0.486979 2.17448 0.710938 1.86719C0.940104 1.5599 1.21354 1.28906 1.53125 1.05469C1.84896 0.820312 2.20052 0.630208 2.58594 0.484375C2.70052 0.442708 2.83073 0.393229 2.97656 0.335938C3.1224 0.278646 3.27083 0.226562 3.42188 0.179688C3.57812 0.127604 3.72917 0.0859375 3.875 0.0546875C4.02604 0.0182292 4.16146 0 4.28125 0C4.45833 0 4.63021 0.0286458 4.79688 0.0859375C4.96875 0.143229 5.125 0.223958 5.26562 0.328125C5.40625 0.427083 5.52865 0.549479 5.63281 0.695312C5.74219 0.835938 5.82552 0.989583 5.88281 1.15625L7.21094 5.14062C7.26823 5.32292 7.29688 5.5 7.29688 5.67188C7.29688 5.91146 7.26302 6.11979 7.19531 6.29688C7.13281 6.46875 7.03906 6.61979 6.91406 6.75C6.79427 6.88021 6.64844 6.99479 6.47656 7.09375C6.3099 7.1875 6.125 7.27344 5.92188 7.35156C5.80208 7.39323 5.67969 7.43229 5.55469 7.46875C5.42969 7.50521 5.3125 7.55208 5.20312 7.60938C5.16667 7.63021 5.13281 7.66667 5.10156 7.71875C5.07031 7.77083 5.05469 7.81771 5.05469 7.85938C5.05469 7.93229 5.07552 7.98958 5.11719 8.03125C5.16406 8.07292 5.20833 8.11458 5.25 8.15625L8.69531 11.5938C8.73698 11.6354 8.77604 11.6797 8.8125 11.7266C8.85417 11.7682 8.91146 11.7891 8.98438 11.7891C9.02604 11.7891 9.07292 11.7734 9.125 11.7422C9.17708 11.7109 9.21354 11.6771 9.23438 11.6406C9.29167 11.5312 9.33854 11.4141 9.375 11.2891C9.41146 11.1641 9.45052 11.0443 9.49219 10.9297C9.57031 10.7266 9.65625 10.5417 9.75 10.375C9.84896 10.2031 9.96354 10.0573 10.0938 9.9375C10.224 9.8125 10.375 9.71615 10.5469 9.64844C10.724 9.58073 10.9323 9.54688 11.1719 9.54688ZM12.7734 15.7188C13.0599 15.7188 13.3359 15.6745 13.6016 15.5859C13.8672 15.4974 14.1094 15.3724 14.3281 15.2109C14.5521 15.0547 14.7448 14.8646 14.9062 14.6406C15.0729 14.4167 15.2031 14.1693 15.2969 13.8984C15.3854 13.6484 15.4583 13.3932 15.5156 13.1328C15.5781 12.8724 15.6458 12.612 15.7188 12.3516L10.6719 10.6719L10.2422 12.2188C10.1484 12.3125 10.0573 12.401 9.96875 12.4844C9.88021 12.5677 9.78646 12.6432 9.6875 12.7109C9.58854 12.7734 9.48177 12.8229 9.36719 12.8594C9.2526 12.8958 9.125 12.9141 8.98438 12.9141C8.73958 12.9141 8.53125 12.862 8.35938 12.7578C8.1875 12.6536 8.02083 12.5182 7.85938 12.3516L4.49219 8.98438C4.32552 8.81771 4.1901 8.65104 4.08594 8.48438C3.98177 8.31771 3.92969 8.10938 3.92969 7.85938C3.92969 7.58333 3.99479 7.34635 4.125 7.14844C4.26042 6.95052 4.42969 6.76823 4.63281 6.60156L6.17969 6.17969L4.49219 1.125C4.23177 1.19792 3.97135 1.26562 3.71094 1.32812C3.45052 1.38542 3.19531 1.45833 2.94531 1.54688C2.67448 1.64062 2.42708 1.77083 2.20312 1.9375C1.97917 2.09896 1.78646 2.29167 1.625 2.51562C1.46875 2.73438 1.34635 2.97656 1.25781 3.24219C1.16927 3.50781 1.125 3.78385 1.125 4.07031V4.49219C1.125 5.52865 1.25781 6.52604 1.52344 7.48438C1.79427 8.4375 2.17188 9.33073 2.65625 10.1641C3.14583 10.9922 3.73177 11.7474 4.41406 12.4297C5.09635 13.112 5.85156 13.6953 6.67969 14.1797C7.51302 14.6693 8.40625 15.0469 9.35938 15.3125C10.3177 15.5833 11.3151 15.7188 12.3516 15.7188H12.7734Z" fill="#F8D49E"/>
</svg>
